<svg width="50" height="50" viewBox="0 0 512 512.002" xmlns="http://www.w3.org/2000/svg"><path d="m351.40625 273.679688-113.136719-113.136719c-5.859375-5.859375-15.355469-5.859375-21.214843 0l-56.566407 56.566406c-2.816406 2.8125-4.394531 6.628906-4.394531 10.605469 0 3.976562 1.578125 7.792968 4.394531 10.605468l113.136719 113.136719c2.929688 2.929688 6.765625 4.394531 10.605469 4.394531 3.835937 0 7.675781-1.464843 10.605469-4.394531l56.566406-56.566406c5.859375-5.859375 5.859375-15.355469.003906-21.210937zm-67.175781 45.960937-91.925781-91.925781 35.355468-35.355469 91.925782 91.925781zm0 0"/><path d="m418.582031 256 59.679688-59.683594c44.839843-44.839844 44.839843-117.792968 0-162.632812-44.835938-44.839844-117.792969-44.839844-162.632813 0l-59.683594 59.683594-59.683593-59.683594c-21.71875-21.71875-50.597657-33.683594-81.316407-33.683594-30.714843 0-59.59375 11.964844-81.316406 33.683594-44.835937 44.839844-44.835937 117.796875 0 162.632812l59.683594 59.683594-59.683594 59.683594c-44.835937 44.839844-44.835937 117.796875.003906 162.632812 21.71875 21.722656 50.597657 33.6875 81.316407 33.6875 30.714843 0 59.59375-11.964844 81.316406-33.6875l59.679687-59.679687 59.683594 59.679687c22.421875 22.421875 51.867188 33.628906 81.316406 33.628906 29.449219 0 58.898438-11.207031 81.316407-33.628906 44.839843-44.835937 44.839843-117.792968 0-162.632812zm-81.742187-201.105469c33.144531-33.140625 87.066406-33.140625 120.210937 0 33.140625 33.144531 33.140625 87.066407 0 120.210938l-59.683593 59.679687-120.207032-120.207031zm-102.109375 342.527344-59.679688 59.683594c-16.054687 16.054687-37.402343 24.894531-60.105469 24.894531-22.703124 0-44.050781-8.84375-60.101562-24.894531-33.144531-33.144531-33.144531-87.066407 0-120.210938l59.679688-59.679687 21.914062 21.910156zm222.320312 59.679687c-16.054687 16.054688-37.402343 24.898438-60.105469 24.898438-22.703124 0-44.050781-8.84375-60.101562-24.898438l-141-140.996093-70.710938-70.710938s-.003906-.003906-.003906-.003906l-70.285156-70.285156c-16.054688-16.054688-24.898438-37.402344-24.898438-60.105469s8.84375-44.050781 24.898438-60.101562c16.054688-16.054688 37.398438-24.898438 60.101562-24.898438 22.707032 0 44.050782 8.84375 60.105469 24.894531l282 282c33.140625 33.140625 33.140625 87.066407 0 120.207031zm0 0"/><path d="m361.945312 384.5c0 8.285156-6.714843 15-15 15-8.285156 0-15-6.714844-15-15s6.714844-15 15-15c8.285157 0 15 6.714844 15 15zm0 0"/><path d="m399.445312 347c0 8.285156-6.714843 15-15 15-8.285156 0-15-6.714844-15-15s6.714844-15 15-15c8.285157 0 15 6.714844 15 15zm0 0"/><path d="m399.445312 422c0 8.285156-6.714843 15-15 15-8.285156 0-15-6.714844-15-15s6.714844-15 15-15c8.285157 0 15 6.714844 15 15zm0 0"/><path d="m436.945312 384.5c0 8.285156-6.714843 15-15 15-8.285156 0-15-6.714844-15-15s6.714844-15 15-15c8.285157 0 15 6.714844 15 15zm0 0"/><path d="m179.945312 127.5c0 8.285156-6.714843 15-15 15-8.28125 0-15-6.714844-15-15s6.71875-15 15-15c8.285157 0 15 6.714844 15 15zm0 0"/><path d="m142.445312 165c0 8.285156-6.714843 15-15 15-8.28125 0-15-6.714844-15-15s6.71875-15 15-15c8.285157 0 15 6.714844 15 15zm0 0"/><path d="m142.445312 90c0 8.285156-6.714843 15-15 15-8.28125 0-15-6.714844-15-15s6.71875-15 15-15c8.285157 0 15 6.714844 15 15zm0 0"/><path d="m104.945312 127.5c0 8.285156-6.714843 15-15 15-8.28125 0-15-6.714844-15-15s6.71875-15 15-15c8.285157 0 15 6.714844 15 15zm0 0"/><path d="m179.945312 384.5c0 8.285156-6.714843 15-15 15-8.28125 0-15-6.714844-15-15s6.71875-15 15-15c8.285157 0 15 6.714844 15 15zm0 0"/><path d="m142.445312 347c0 8.285156-6.714843 15-15 15-8.28125 0-15-6.714844-15-15s6.71875-15 15-15c8.285157 0 15 6.714844 15 15zm0 0"/><path d="m142.445312 422c0 8.285156-6.714843 15-15 15-8.28125 0-15-6.714844-15-15s6.71875-15 15-15c8.285157 0 15 6.714844 15 15zm0 0"/><path d="m104.945312 384.5c0 8.285156-6.714843 15-15 15-8.28125 0-15-6.714844-15-15s6.71875-15 15-15c8.285157 0 15 6.714844 15 15zm0 0"/><path d="m361.945312 127.5c0 8.285156-6.714843 15-15 15-8.285156 0-15-6.714844-15-15s6.714844-15 15-15c8.285157 0 15 6.714844 15 15zm0 0"/><path d="m399.445312 165c0 8.285156-6.714843 15-15 15-8.285156 0-15-6.714844-15-15s6.714844-15 15-15c8.285157 0 15 6.714844 15 15zm0 0"/><path d="m399.445312 90c0 8.285156-6.714843 15-15 15-8.285156 0-15-6.714844-15-15s6.714844-15 15-15c8.285157 0 15 6.714844 15 15zm0 0"/><path d="m436.945312 127.5c0 8.285156-6.714843 15-15 15-8.285156 0-15-6.714844-15-15s6.714844-15 15-15c8.285157 0 15 6.714844 15 15zm0 0"/></svg>