<svg width="50" height="50" viewBox="0 0 512.001 512" xmlns="http://www.w3.org/2000/svg"><path d="m484.808594 35.554688c-18.320313-22.925782-42.980469-35.554688-69.4375-35.554688h-11.203125c-26.761719 0-48.535157 25.554688-48.535157 56.964844 0 16.941406 6.277344 32.632812 16.890626 43.292968-.980469 5.148438-1.476563 10.421876-1.476563 15.773438 0 1.621094.0625 3.230469.152344 4.835938h-42.972657c-12.371093 0-23.882812 5.558593-31.578124 15.242187-7.699219 9.6875-10.507813 22.15625-7.714844 34.210937l36.226562 156.136719c.023438.082031.039063.164063.0625.242188 3.839844 15.394531-1.136718 30.890625-12.175781 42.203125l1.488281-10.582032c.097656-.691406.144532-1.390624.144532-2.089843 0-14.886719-12.109376-27-27-27h-63.359376c-14.886718 0-27 12.113281-27 27 0 .699219.046876 1.398437.144532 2.089843l1.488281 10.582032c-11.039063-11.3125-16.015625-26.808594-12.171875-42.203125.0625-.257813.121094-.515625.171875-.777344l30.457031-157.039063c2.304688-11.863281-.789062-24.015624-8.476562-33.339843-7.691406-9.328125-19.03125-14.675781-31.121094-14.675781h-37.011719c.089844-1.605469.152344-3.214844.152344-4.835938 0-5.351562-.496094-10.625-1.476563-15.773438 10.609376-10.660156 16.890626-26.351562 16.890626-43.292968 0-31.410156-21.773438-56.964844-48.535157-56.964844h-11.203125c-26.457031 0-51.117187 12.628906-69.4375 35.554688-17.535156 21.941406-27.191406 50.917968-27.191406 81.59375 0 30.671874 9.65625 59.648437 27.191406 81.589843 18.320313 22.929688 42.980469 35.554688 69.4375 35.554688.527344 0 1.0625-.027344 1.585938-.082031 2.011718-.214844 5.695312-.53125 7.210937-.53125 28.089844 0 50.941407-26.90625 50.941407-59.976563 0-8.007813-1.328126-15.730469-3.785157-22.835937h25.230469c4.242188 0 6.816406 2.355468 7.976562 3.761718 1.15625 1.402344 2.980469 4.378906 2.171876 8.542969l-30.390626 156.667969c-8.902343 36.527344 10.96875 72.957031 46.9375 88.550781l2.839844 20.195313c.65625 14.308593 12.503906 25.746093 26.972656 25.746093h6.679688v42.667969c0 8.285156 6.714844 15 15 15s15-6.714844 15-15v-42.667969h6.679688c14.46875 0 26.3125-11.4375 26.972656-25.746093l2.839844-20.195313c36.058593-15.632813 55.941406-52.210937 46.867187-88.828125l-36.199219-156.023438c-.980468-4.230468.816406-7.304687 1.976563-8.765624 1.160156-1.457032 3.75-3.90625 8.089843-3.90625h31.195313c-2.460937 7.105468-3.785156 14.828124-3.785156 22.835937 0 33.070313 22.851562 59.976563 50.9375 59.976563 1.519531 0 5.199219.316406 7.207031.53125.53125.054687 1.0625.082031 1.589844.082031 26.457031 0 51.117187-12.625 69.441406-35.550781 17.53125-21.941407 27.1875-50.917969 27.1875-81.59375 0-30.675782-9.65625-59.652344-27.191406-81.59375zm-376.484375 63.816406c1.742187 5.269531 2.628906 10.878906 2.628906 16.660156 0 5.019531-.675781 9.941406-2.003906 14.625-.449219 1.585938-.621094 3.199219-.546875 4.785156-.003906.140625-.023438.28125-.023438.425782 0 6.328124 3.921875 11.726562 9.460938 13.929687 5.332031 5.675781 8.527344 14.429687 8.527344 23.90625 0 16.25-9.589844 29.976563-20.941407 29.976563-3.054687 0-7.507812.40625-9.519531.609374-36.410156-.507812-65.90625-39.402343-65.90625-87.140624 0-48.054688 29.890625-87.148438 66.628906-87.148438h11.203125c10.046875 0 18.535157 12.347656 18.535157 26.964844 0 10.796875-4.570313 20.574218-11.640626 24.914062-5.933593 3.640625-8.582031 10.882813-6.402343 17.492188zm171.058593 293.480468c-.566406 1.695313-.824218 3.496094-.75 5.328126l-3.679687 26.152343h-37.90625l-3.679687-26.152343c.074218-1.835938-.183594-3.632813-.75-5.328126l-4.726563-33.621093h56.222656zm136.710938-188.5625c-2.011719-.203124-6.464844-.609374-9.519531-.609374-11.351563 0-20.941407-13.726563-20.941407-29.976563 0-9.476563 3.195313-18.230469 8.527344-23.90625 5.539063-2.203125 9.460938-7.601563 9.460938-13.929687 0-.144532-.019532-.285157-.023438-.425782.074219-1.585937-.097656-3.199218-.546875-4.785156-1.328125-4.683594-2-9.605469-2-14.625 0-5.78125.882813-11.390625 2.625-16.660156 2.183594-6.609375-.46875-13.855469-6.398437-17.492188-7.074219-4.339844-11.640625-14.117187-11.640625-24.914062 0-14.617188 8.484375-26.964844 18.535156-26.964844h11.199219c36.738281 0 66.628906 39.09375 66.628906 87.148438 0 47.738281-29.496094 86.632812-65.90625 87.140624zm0 0"/></svg>