<svg width="50" height="50" id="Capa_1" enable-background="new 0 0 512.001 512.001" viewBox="0 0 512.001 512.001" xmlns="http://www.w3.org/2000/svg"><g><path d="m460.252 495.463-24.259-235.521c-2.795-28.123-26.221-49.33-54.49-49.33h-50.751c21.16-20.022 33.503-47.82 33.503-77.701-.051-18.257-.059-25.988-.083-27.212-.685-58.373-48.452-105.699-106.951-105.699-58.981 0-106.966 47.985-106.966 106.966v25.985c0 30.553 12.884 58.153 33.503 77.662h-50.751c-26.9 0-49.619 19.255-54.021 45.784l-26.57 160.123c-5.496 33.125 19.992 63.702 54.021 63.702h9.216l-1.502 15.095c-.82 8.244 5.198 15.591 13.441 16.411 8.224.819 15.589-5.18 16.411-13.441l1.797-18.064h168.264c30.194 0 54.759-24.558 54.759-54.743s-24.565-54.743-54.759-54.743h-3.293l75.357-129.693c10.631 1.992 18.904 10.734 20.016 21.92l24.264 235.574c.847 8.227 8.202 14.233 16.458 13.384 8.242-.85 14.235-8.218 13.386-16.459zm-203.031-465.463c36.926 0 67.907 26.209 75.29 61h-10.26l-25.49-26.001c-5.84-5.956-15.374-5.972-21.248-.176-25.608 25.271-59.329 39.448-95.206 40.102 1.089-41.497 35.159-74.925 76.914-74.925zm-76.916 104.929c38.776-.581 75.506-14.153 105.108-38.65l19.825 20.223c2.821 2.877 6.682 4.499 10.711 4.499h18.274l.031 11.964c-.008 42.43-34.547 76.949-77 76.949-41.793-.001-75.892-33.461-76.949-74.985zm-71.723 126.38c1.99-11.992 12.262-20.695 24.425-20.695h144.882l-193.796 168.281zm-18.851 182.422 233.915-203.118h28.037l-121.792 209.609h-123.453c-6.236 0-12.17-2.338-16.707-6.491zm224.335-42.995c13.652 0 24.759 11.1 24.759 24.743s-11.107 24.743-24.759 24.743h-49.478l28.753-49.486z"/></g></svg>