<svg width="75" height="75" viewBox="0 0 512.00005 512" xmlns="http://www.w3.org/2000/svg"><path fill="#2664ad" d="m438.996094 99.015625h-26.003906v-26.003906c0-5.523438-4.476563-10-10-10h-48.003907c-5.523437 0-10 4.476562-10 10v26.003906h-26.003906c-5.523437 0-10 4.476563-10 10v48.003906c0 5.523438 4.476563 10 10 10h26.003906v26.003907c0 5.523437 4.476563 10 10 10h48.003907c5.523437 0 10-4.476563 10-10v-26.003907h26.003906c5.523437 0 10-4.476562 10-10v-48.003906c0-5.523437-4.476563-10-10-10zm-10.003906 48.003906h-26c-5.523438 0-10 4.476563-10 10v26h-28.003907v-26c0-5.523437-4.476562-10-10-10h-26v-28.003906h26c5.523438 0 10-4.476563 10-10v-26h28.003907v26c0 5.523437 4.476562 10 10 10h26zm0 0"/><path fill="#2664ad" d="m378.992188.0078125c-73.34375 0-133.011719 59.6679685-133.011719 133.0117185 0 25.890625 7.386719 50.808594 21.398437 72.363281l-9.925781 37.050782c-.925781 3.453125.058594 7.132812 2.585937 9.660156 2.527344 2.527344 6.210938 3.515625 9.660157 2.585938l37.101562-9.9375c21.519531 13.941406 46.375 21.285156 72.191407 21.285156 73.339843 0 133.007812-59.667969 133.007812-133.011719 0-73.339844-59.667969-133.0078125-133.007812-133.0078125zm0 246.0195315c-23.28125 0-45.636719-7.027344-64.65625-20.320313-1.695313-1.1875-3.699219-1.804687-5.730469-1.804687-.863281 0-1.734375.113281-2.585938.34375l-24.765625 6.632812 6.625-24.722656c.765625-2.859375.226563-5.910156-1.472656-8.332031-13.359375-19.046875-20.425781-41.457031-20.425781-64.804688 0-62.316406 50.695312-113.011719 113.011719-113.011719 62.3125 0 113.007812 50.695313 113.007812 113.011719 0 62.3125-50.695312 113.007813-113.007812 113.007813zm0 0"/><path fill="#2664ad" d="m319.207031 320.304688c-6.96875-12.070313-22.460937-16.21875-34.53125-9.25l-15.730469 9.082031c-5.847656 3.375-10.027343 8.824219-11.777343 15.347656-.542969 2.027344-.828125 4.085937-.867188 6.132813-24.039062 11.316406-53.234375 2.492187-66.753906-20.925782l-38.832031-67.257812c-13.519532-23.417969-6.5625-53.117188 15.253906-68.273438 1.792969.992188 3.71875 1.769532 5.746094 2.3125 2.179687.585938 4.386718.871094 6.585937.871094 4.378907 0 8.699219-1.148438 12.597657-3.394531l15.730468-9.082031c5.84375-3.375 10.027344-8.828126 11.773438-15.347657 1.75-6.523437.851562-13.335937-2.523438-19.183593l-74.296875-128.6875c-3.375-5.847657-8.828125-10.027344-15.351562-11.777344-6.519531-1.746094-13.332031-.8515628-19.179688 2.527344l-15.730469 9.082031c-8.074218 4.660156-12.597656 13.136719-12.625 21.851562-65.90625 41.550781-95.089843 123.621094-69.464843 197.785157 9.03125 26.128906 19.78125 51.964843 31.960937 76.789062 2.429688 4.960938 8.425782 7.003906 13.382813 4.574219 4.957031-2.433594 7.003906-8.421875 4.574219-13.382813-11.816407-24.085937-22.25-49.160156-31.011719-74.515625-22.128907-64.03125 2.097656-134.761719 57.699219-172.046875l43.496093 75.335938 23.648438 40.960937c-13.101563 9.605469-22.484375 23.273438-26.75 39.195313-4.957031 18.5-2.414063 37.820312 7.164062 54.40625l38.828125 67.253906c18.425782 31.917969 57.855469 44.3125 90.851563 29.835938l67.148437 116.300781c-60.09375 29.511719-133.457031 15.125-177.847656-36.054688-17.472656-20.144531-33.875-41.574219-48.75-63.703125-3.082031-4.582031-9.296875-5.800781-13.878906-2.71875-4.582032 3.082032-5.800782 9.296875-2.71875 13.878906 15.328125 22.800782 32.230468 44.890626 50.238281 65.648438 32.949219 37.988281 79.957031 58.101562 127.621094 58.101562 26.707031 0 53.621093-6.332031 78.371093-19.359374 1.886719 1.082031 3.925782 1.933593 6.082032 2.511718 2.179687.582032 4.386718.871094 6.582031.871094 4.382813 0 8.703125-1.148438 12.601563-3.394531l15.726562-9.085938c12.074219-6.96875 16.222656-22.457031 9.253906-34.527343zm-220.34375-287.300782c.363281-1.359375 1.238281-2.5 2.457031-3.203125l15.730469-9.082031c.8125-.46875 1.714844-.710938 2.628907-.710938.460937 0 .921874.0625 1.375.183594 1.359374.363282 2.5 1.238282 3.203124 2.457032l74.296876 128.6875c1.457031 2.519531.589843 5.753906-1.929688 7.207031l-15.730469 9.082031c-1.222656.707031-2.644531.894531-4.003906.527344-1.359375-.363282-2.496094-1.234375-3.203125-2.457032l-22.304688-38.632812-51.992187-90.054688c-.707031-1.21875-.890625-2.640624-.527344-4.003906zm275.386719 433.195313-15.730469 9.085937c-1.21875.703125-2.640625.890625-4 .523438-1.363281-.363282-2.5-1.234375-3.207031-2.457032l-74.296875-128.6875c-.703125-1.21875-.890625-2.640624-.527344-4.003906.367188-1.359375 1.238281-2.496094 2.460938-3.203125l15.730469-9.082031c.8125-.46875 1.714843-.710938 2.628906-.710938.457031 0 .917968.0625 1.371094.183594 1.363281.363282 2.5 1.238282 3.207031 2.457032l74.296875 128.6875c1.453125 2.519531.585937 5.753906-1.933594 7.207031zm0 0"/><path fill="#2664ad" d="m71.5 334.472656c-2.632812 0-5.210938 1.058594-7.074219 2.929688-1.859375 1.859375-2.929687 4.441406-2.929687 7.070312s1.070312 5.210938 2.929687 7.070313c1.863281 1.859375 4.441407 2.929687 7.074219 2.929687 2.628906 0 5.207031-1.070312 7.070312-2.929687 1.859376-1.859375 2.929688-4.441407 2.929688-7.070313s-1.070312-5.210937-2.929688-7.070312c-1.863281-1.871094-4.441406-2.929688-7.070312-2.929688zm0 0"/></svg>